<?xml version="1.0" encoding="UTF-8"?>
<!-- Generator: Adobe Illustrator 19.1.0, SVG Export Plug-In . SVG Version: 6.00 Build 0)  -->
<!DOCTYPE svg PUBLIC "-//W3C//DTD SVG 1.1//EN" "http://www.w3.org/Graphics/SVG/1.1/DTD/svg11.dtd">
<svg xmlns="http://www.w3.org/2000/svg" xmlns:xlink="http://www.w3.org/1999/xlink" xmlns:dc="http://purl.org/dc/elements/1.1/" xmlns:cc="http://creativecommons.org/ns#" xmlns:rdf="http://www.w3.org/1999/02/22-rdf-syntax-ns#" version="1.1" id="DESIGNS" x="0px" y="0px" width="64px" height="64px" viewBox="0 0 64 64" style="enable-background:new 0 0 64 64;" xml:space="preserve">
<title property="dc:title">to fight</title><desc property="dc:description">An icon for "fight" from the Fandom series on to [icon]. Downloaded from http://www.toicon.com/icons/fandom_fight by 191.189.253.137 on 2017-01-26. Licensed CC-BY, see http://toicon.com/license/ for details.</desc>
<g>
	<g>
		<path class="fandom_tien" d="M32,7C18.193,7,7,18.193,7,32h50C57,18.193,45.807,7,32,7z" style="fill: #8579A3;"/>
		<path class="fandom_negen" d="M32,57c13.807,0,25-11.193,25-25H7C7,45.807,18.193,57,32,57z" style="fill: #685683;"/>
	</g>
	<g>
		<path class="fandom_dertien" d="M58.612,62.691L40.06,43.742c-0.539-0.551-0.53-1.434,0.021-1.974l1.995-1.953    c0.551-0.539,1.434-0.53,1.974,0.021l18.552,18.949c0.539,0.551,0.53,1.434-0.021,1.974l-1.995,1.953    C60.035,63.251,59.152,63.242,58.612,62.691z M5.388,62.691L23.94,43.742c0.539-0.551,0.53-1.434-0.021-1.974l-1.995-1.953    c-0.551-0.539-1.434-0.53-1.974,0.021L1.398,58.785c-0.539,0.551-0.53,1.434,0.021,1.974l1.995,1.953    C3.965,63.251,4.848,63.242,5.388,62.691z" style="fill: #AA9991;"/>
		<path class="fandom_zes" d="M40.081,41.768l1.995-1.953c0.079-0.078,0.166-0.143,0.256-0.198L8.378,5.674    C7.442,4.718,5.401,6.717,6.337,7.673L39.691,42.48C39.746,42.218,39.876,41.969,40.081,41.768z" style="fill: #00B3AA;"/>
		<path class="fandom_twintig" d="M41.078,40.792l0.997-0.976c0.551-0.539,1.434-0.53,1.974,0.021l18.552,18.949    c0.539,0.551,0.53,1.434-0.021,1.974l-0.997,0.976L41.078,40.792z M22.922,40.792l-0.997-0.976    c-0.551-0.539-1.434-0.53-1.974,0.021L1.398,58.785c-0.539,0.551-0.53,1.434,0.021,1.974l0.997,0.976L22.922,40.792z" style="fill: #FFFAFA;"/>
		<path class="fandom_acht" d="M55.622,5.674L21.668,39.617c0.091,0.055,0.177,0.121,0.256,0.198l1.995,1.953    c0.205,0.201,0.335,0.45,0.39,0.712L57.663,7.673C58.599,6.717,56.558,4.718,55.622,5.674z" style="fill: #6BC4D2;"/>
		<path class="fandom_vijftien" d="M43.966,47.731l3.989-3.906l1.953,1.995l-3.989,3.906L43.966,47.731z M55.683,59.699l1.995-1.953    c0.551-0.539,0.56-1.423,0.021-1.974l-4.882-4.987c-0.539-0.551-1.423-0.56-1.974-0.021l-1.995,1.953L55.683,59.699z M59,58.514    c0.008,0.828,0.685,1.494,1.514,1.486c0.828-0.008,1.494-0.685,1.486-1.514c-0.008-0.828-0.685-1.494-1.514-1.486    C59.658,57.008,58.992,57.685,59,58.514z M20.034,47.731l-3.989-3.906l-1.953,1.995l3.989,3.906L20.034,47.731z M15.152,52.718    l-1.995-1.953c-0.551-0.539-1.434-0.53-1.974,0.021l-4.882,4.987c-0.539,0.551-0.53,1.434,0.021,1.974l1.995,1.953L15.152,52.718z     M5,58.517C5.009,57.689,4.345,57.009,3.517,57C2.689,56.991,2.009,57.655,2,58.483C1.991,59.311,2.655,59.991,3.483,60    S4.991,59.345,5,58.517z" style="fill: #3A3A3A;"/>
		<path class="fandom_een" d="M43.831,45.164C44.033,45.063,44.258,45,44.5,45c0.828,0,1.5,0.672,1.5,1.5    c0,0.242-0.063,0.467-0.164,0.669C44.549,47.816,43.184,46.452,43.831,45.164z M20.836,47.169C20.937,46.967,21,46.742,21,46.5    c0-0.828-0.672-1.5-1.5-1.5c-0.242,0-0.467,0.063-0.669,0.164C18.184,46.452,19.549,47.816,20.836,47.169z" style="fill: #FF786E;"/>
		<path class="fandom_twee" d="M45.836,47.169C45.589,47.66,45.087,48,44.5,48c-0.828,0-1.5-0.672-1.5-1.5    c0-0.587,0.34-1.089,0.831-1.336C43.184,46.451,44.548,47.816,45.836,47.169z M18.831,45.164C18.34,45.411,18,45.913,18,46.5    c0,0.828,0.672,1.5,1.5,1.5c0.587,0,1.089-0.34,1.336-0.831C19.548,47.816,18.184,46.451,18.831,45.164z" style="fill: #BE5652;"/>
	</g>
</g>
<metadata><work rdf:about=""><format>image/svg+xml</format><type rdf:resource="http://purl.org/dc/dcmitype/StillImage"/><license rdf:resource="http://creativecommons.org/licenses/by/4.0/"/><attributionname>Carol Liao</attributionname><attributionurl>http://www.toicon.com/icons/fandom_fight</attributionurl></work></metadata></svg>
