<?xml version="1.0" encoding="UTF-8"?>
<!-- Generator: Adobe Illustrator 19.1.0, SVG Export Plug-In . SVG Version: 6.00 Build 0)  -->
<svg xmlns="http://www.w3.org/2000/svg" xmlns:xlink="http://www.w3.org/1999/xlink" xmlns:dc="http://purl.org/dc/elements/1.1/" xmlns:cc="http://creativecommons.org/ns#" xmlns:rdf="http://www.w3.org/1999/02/22-rdf-syntax-ns#" version="1.1" id="DESIGNS" x="0px" y="0px" width="32px" height="32px" viewBox="0 0 32 32" style="enable-background:new 0 0 32 32;" xml:space="preserve">
<title property="dc:title">to roll</title><desc property="dc:description">An icon for "roll" from the Puchi Puchi series on to [icon]. Downloaded from http://www.toicon.com/icons/puchi-puchi_roll by 191.189.253.137 on 2017-01-26. Licensed CC-BY, see http://toicon.com/license/ for details.</desc>
<path class="puchipuchi_een" d="M29,13H15c-1.105,0-2,0.895-2,2v14c0,1.105,0.895,2,2,2h14c1.105,0,2-0.895,2-2V15  C31,13.895,30.105,13,29,13z M17,29c-1.105,0-2-0.895-2-2s0.895-2,2-2c1.105,0,2,0.895,2,2S18.105,29,17,29z M17,19  c-1.105,0-2-0.895-2-2s0.895-2,2-2c1.105,0,2,0.895,2,2S18.105,19,17,19z M22,24c-1.105,0-2-0.895-2-2s0.895-2,2-2  c1.105,0,2,0.895,2,2S23.105,24,22,24z M27,29c-1.105,0-2-0.895-2-2s0.895-2,2-2c1.105,0,2,0.895,2,2S28.105,29,27,29z M27,19  c-1.105,0-2-0.895-2-2s0.895-2,2-2c1.105,0,2,0.895,2,2S28.105,19,27,19z M19,12V3c0-1.105-0.895-2-2-2H3C1.895,1,1,1.895,1,3v14  c0,1.105,0.895,2,2,2h9v-4c0-1.654,1.346-3,3-3H19z M10,12c-1.105,0-2-0.895-2-2c0-1.105,0.895-2,2-2s2,0.895,2,2  C12,11.105,11.105,12,10,12z" style="fill: #000000;"/>
<metadata><work rdf:about=""><format>image/svg+xml</format><type rdf:resource="http://purl.org/dc/dcmitype/StillImage"/><license rdf:resource="http://creativecommons.org/licenses/by/4.0/"/><attributionname>Shannon E Thomas</attributionname><attributionurl>http://www.toicon.com/icons/puchi-puchi_roll</attributionurl></work></metadata></svg>
